<svg xmlns="http://www.w3.org/2000/svg" width="72" height="52" fill="none" aria-label="사이프 로고"><path fill="#0ff" d="M8.777 36c6.314 0 10.253-2.869 10.253-7.131 0-5.902-9.674-4.563-9.674-6.667 0-.656.985-1.284 2.983-1.284 1.97 0 3.94.465 5.562 1.42l2.462-4.699C18.48 16.574 15.786 16 12.773 16c-6.4 0-10.253 2.842-10.253 7.186 0 5.929 9.645 4.754 9.645 6.776 0 .683-.926 1.12-2.693 1.12-2.26 0-4.577-.547-6.836-1.776L0 34.06C1.94 35.18 5.156 36 8.777 36m10.983-.437h6.837l4.055-19.126h-6.836zm23.19-19.126h-9.007l-4.055 19.126h6.835l.985-4.7h3.505c6.227 0 10.254-3.251 10.254-8.087 0-3.99-3.07-6.339-8.516-6.339m-1.39 9.454h-2.81l.957-4.481h2.288c1.564 0 2.549.574 2.549 1.94 0 1.612-1.1 2.54-2.983 2.54"/><path fill="#0ff" fill-rule="evenodd" d="M70.327 16.513h-8.173L52 26.039l10.072 9.448h8.172l-6.941-6.512H72v-5.421h-9.179z" clip-rule="evenodd"/></svg>